<?xml version="1.0" encoding="UTF-8"?>
<svg xmlns="http://www.w3.org/2000/svg" width="132" height="121" viewBox="0 0 132 121" fill="none">
  <path d="M18.6757 83.347L14.4881 8.69107L104.708 2.45068V74.9673L18.6757 83.347Z" fill="#00BBFF" stroke="black" stroke-width="3.18738" stroke-linejoin="round"></path>
  <path d="M18.6473 83.0838L41.0519 99.7646L129.423 92.4422L104.708 74.9672L18.6473 83.0838Z" fill="#0081B0" stroke="black" stroke-width="3.18738" stroke-linejoin="round"></path>
  <path d="M129.423 92.4424L127.084 20.9377L104.708 2.45068V74.9673L129.423 92.4424Z" fill="#0081B0" stroke="black" stroke-width="3.18738" stroke-linejoin="round"></path>
  <path fill-rule="evenodd" clip-rule="evenodd" d="M81.0348 25.1082C81.659 24.9283 82.3223 24.9142 82.9555 25.0674C83.5888 25.2206 84.1689 25.5354 84.6355 25.9792C85.102 26.4229 85.438 26.9794 85.6084 27.5906C85.7788 28.2018 85.7774 28.8454 85.6044 29.4544L76.5946 61.1225C75.7226 64.1769 72.0067 65.5842 69.2332 63.7194C66.9132 62.1592 63.4752 59.7701 60.4143 57.3336C58.884 56.1142 54.2121 52.2338 55.091 49.9226C55.8451 47.9468 65.1437 41.214 70.4764 37.1902C72.5697 35.6092 71.8165 34.4872 69.3954 35.8885C63.3834 39.3675 53.7685 44.6075 50.6228 46.0356C47.8479 47.2945 46.4602 47.4116 44.8639 46.9751C41.9515 46.1794 39.283 45.1441 37.1376 44.0011C34.2384 42.4573 34.8277 38.4309 37.8388 37.5625L81.0348 25.1082Z" fill="white"></path>
</svg>
