<?xml version="1.0" encoding="UTF-8"?>
<svg xmlns="http://www.w3.org/2000/svg" width="132" height="121" viewBox="0 0 132 121" fill="none">
  <path d="M18.6757 83.347L14.4881 8.69107L104.708 2.45068V74.9673L18.6757 83.347Z" fill="#6A6A6A" stroke="black" stroke-width="3.18738" stroke-linejoin="round"></path>
  <path d="M18.6473 83.0838L41.0519 99.7646L129.423 92.4422L104.708 74.9672L18.6473 83.0838Z" fill="#3F3F3F" stroke="black" stroke-width="3.18738" stroke-linejoin="round"></path>
  <path d="M129.423 92.4424L127.084 20.9377L104.708 2.45068V74.9673L129.423 92.4424Z" fill="#3F3F3F" stroke="black" stroke-width="3.18738" stroke-linejoin="round"></path>
  <path d="M72.4277 19.3452L79.7419 19.0161L64.5131 37.7361L84.3351 61.3806L69.6153 62.0429L57.4677 47.7063L44.8941 63.1551L37.5759 63.4844L53.8656 43.4607L34.8611 21.0374L49.9546 20.3583L60.9418 33.4675L72.4277 19.3452ZM71.4547 57.6388L75.5073 57.4565L47.9229 24.5433L43.5741 24.739L71.4547 57.6388Z" fill="white"></path>
</svg>
